<svg width="854" height="854" viewBox="0 0 854 854" fill="none" xmlns="http://www.w3.org/2000/svg">
<g filter="url(#filter0_f_778_1321)">
<ellipse cx="361.921" cy="573.56" rx="179.981" ry="179.982" transform="rotate(-115.845 361.921 573.56)" fill="url(#paint0_linear_778_1321)"/>
<path d="M200.391 651.804C157.18 562.594 194.468 455.244 283.678 412.032C372.889 368.82 480.239 406.108 523.451 495.318C566.662 584.528 529.373 691.877 440.163 735.09C350.952 778.301 243.603 741.013 200.391 651.804Z" stroke="url(#paint1_linear_778_1321)"/>
</g>
<g filter="url(#filter1_f_778_1321)">
<path d="M210.85 646.283C170.582 563.151 205.331 463.113 288.464 422.845C371.598 382.576 471.635 417.325 511.903 500.458C552.172 583.59 517.422 683.627 434.289 723.896C351.156 764.165 251.119 729.416 210.85 646.283Z" stroke="url(#paint2_linear_778_1321)" stroke-width="5"/>
</g>
<ellipse cx="361.921" cy="573.561" rx="171.8" ry="171.801" transform="rotate(-115.845 361.921 573.561)" fill="url(#paint3_linear_778_1321)"/>
<path d="M207.98 648.128C166.797 563.109 202.335 460.802 287.355 419.62C372.374 378.438 474.681 413.974 515.863 498.994C557.045 584.013 521.508 686.32 436.488 727.502C351.468 768.684 249.162 733.148 207.98 648.128Z" stroke="url(#paint4_linear_778_1321)" stroke-opacity="0.9" stroke-width="1.5"/>
<g filter="url(#filter2_f_778_1321)">
<ellipse cx="301.781" cy="301.953" rx="201.193" ry="201.191" fill="url(#paint5_linear_778_1321)"/>
<path d="M301.781 101.262C412.621 101.262 502.475 191.115 502.475 301.954C502.475 412.792 412.621 502.645 301.781 502.645C190.942 502.645 101.088 412.792 101.088 301.954C101.088 191.115 190.941 101.262 301.781 101.262Z" stroke="url(#paint6_linear_778_1321)"/>
</g>
<ellipse cx="192.048" cy="192.046" rx="192.048" ry="192.046" transform="matrix(0.989931 -0.141547 0.14155 0.989931 84.4834 139.024)" fill="url(#paint7_linear_778_1321)" fill-opacity="0.8"/>
<path d="M274.704 112.583C379.291 97.6279 476.199 170.289 491.153 274.875C506.108 379.461 433.447 476.368 328.86 491.323C224.273 506.278 127.365 433.616 112.41 329.03C97.4554 224.444 170.117 127.537 274.704 112.583Z" stroke="url(#paint8_linear_778_1321)" stroke-opacity="0.9" stroke-width="1.5"/>
<g filter="url(#filter3_f_778_1321)">
<path d="M302.238 114.235C405.66 114.235 489.5 198.074 489.5 301.495C489.5 404.915 405.66 488.754 302.238 488.754C198.816 488.754 114.977 404.915 114.977 301.495C114.977 198.074 198.817 114.235 302.238 114.235Z" stroke="url(#paint9_linear_778_1321)" stroke-width="5"/>
</g>
<g filter="url(#filter4_f_778_1321)">
<path d="M134.425 232.907C193.287 95.8083 380.888 76.5279 460.927 215.086" stroke="url(#paint10_linear_778_1321)" stroke-width="8" stroke-linecap="round"/>
</g>
<g filter="url(#filter5_f_778_1321)">
<ellipse cx="564.664" cy="371.675" rx="189.263" ry="189.29" transform="rotate(61.6329 564.664 371.675)" fill="url(#paint11_linear_778_1321)" fill-opacity="0.7"/>
<path d="M730.785 281.978C780.316 373.71 746.095 488.233 654.349 537.772C562.603 587.31 448.076 553.105 398.545 461.373C349.013 369.64 383.233 255.117 474.979 205.578C566.725 156.04 681.253 190.245 730.785 281.978Z" stroke="url(#paint12_linear_778_1321)"/>
</g>
<ellipse cx="564.664" cy="371.675" rx="180.66" ry="180.686" transform="rotate(129.067 564.664 371.675)" fill="url(#paint13_linear_778_1321)"/>
<path d="M704.368 485.075C641.748 562.221 528.437 573.988 451.28 511.359C374.124 448.73 362.34 335.42 424.961 258.275C487.581 181.129 600.892 169.362 678.049 231.991C755.205 294.62 766.989 407.93 704.368 485.075Z" stroke="url(#paint14_linear_778_1321)" stroke-opacity="0.9" stroke-width="1.5"/>
<g filter="url(#filter6_f_778_1321)">
<path d="M727.994 304.75C765.046 394.619 722.22 497.513 632.338 534.571C542.457 571.629 439.556 528.817 402.504 438.948C365.451 349.08 408.278 246.185 498.16 209.127C588.042 172.07 690.941 214.882 727.994 304.75Z" stroke="url(#paint15_linear_778_1321)" stroke-width="5"/>
</g>
<g filter="url(#filter7_f_778_1321)">
<path d="M635.395 214.572C756.5 279 754.392 418.581 692.507 486.221" stroke="url(#paint16_linear_778_1321)" stroke-width="6" stroke-linecap="round"/>
</g>
<g filter="url(#filter8_f_778_1321)">
<path d="M204.648 506.144C237.713 422.181 329.055 392.009 384.852 404.409L385.401 403.707C372.04 342.826 392.386 250.518 486.621 208.36" stroke="url(#paint17_linear_778_1321)" stroke-opacity="0.5" stroke-width="20" stroke-linecap="round"/>
</g>
<g filter="url(#filter9_f_778_1321)">
<path d="M542.832 550.995C481.662 547.689 443.637 514.624 407.734 468.957L406.853 468.746C348.162 498.918 273.353 509.251 210.53 471.226" stroke="url(#paint18_linear_778_1321)" stroke-opacity="0.5" stroke-width="10" stroke-linecap="round"/>
</g>
<g filter="url(#filter10_f_778_1321)">
<path d="M469.677 207.947C508.115 267.051 506.462 360.459 453.729 426.251L453.971 427.002C503.568 460.067 544.899 522.89 532.913 603.486" stroke="url(#paint19_linear_778_1321)" stroke-opacity="0.4" stroke-width="15" stroke-linecap="round"/>
</g>
<path d="M487.034 349.3C472.155 405.51 439.823 439.54 408.411 461.86C392.291 435.82 375.026 384.018 391.559 322.848C401.892 289.783 422.331 246.871 472.568 217.454C493.234 260.438 497.829 303.422 487.034 349.3Z" fill="url(#paint20_radial_778_1321)" fill-opacity="0.6"/>
<path d="M471.703 220.293C491.366 262.198 495.611 304.093 485.094 348.814C470.636 403.406 439.573 436.841 409.003 458.972C393.459 432.769 377.512 382.528 393.482 323.401C403.607 291.019 423.443 249.313 471.703 220.293Z" stroke="url(#paint21_linear_778_1321)" stroke-opacity="0.5" stroke-width="4"/>
<path d="M313.58 411.347C368.55 395.641 413.341 408.482 447.355 426.588C424.623 450.561 395.691 478.666 332.042 489.825C297.848 495.378 253.926 489.825 223.341 475.359C246.9 444.774 272.525 424.522 313.58 411.347Z" fill="url(#paint22_radial_778_1321)" fill-opacity="0.6"/>
<path d="M226.469 474.597C249.375 445.419 274.432 426.022 314.13 413.271L314.129 413.27C367.224 398.1 410.685 409.854 444.079 427.13C421.765 450.504 393.069 477.09 331.721 487.852C298.739 493.208 256.545 488.098 226.469 474.597Z" stroke="url(#paint23_linear_778_1321)" stroke-opacity="0.5" stroke-width="4"/>
<path d="M444.368 506.495C411.717 477.15 393.531 439.126 387.332 406.061C414.609 411.848 451.31 419.413 489.419 461.032C510.911 483.351 527.857 520.134 531.577 549.066C500.992 544.107 472.887 530.881 444.368 506.495Z" fill="url(#paint24_radial_778_1321)" fill-opacity="0.2"/>
<path d="M529.213 546.633C500.073 541.413 473.115 528.439 445.686 504.99C414.373 476.839 396.516 440.611 389.882 408.649C416.692 414.364 451.625 422.719 487.943 462.383L487.961 462.401L487.978 462.42C508.503 483.734 524.878 518.548 529.213 546.633Z" stroke="url(#paint25_linear_778_1321)" stroke-opacity="0.4" stroke-width="4"/>
<g filter="url(#filter11_f_778_1321)">
<path d="M208.041 504.046C261.998 393.848 416.093 362.755 504.8 483.47" stroke="url(#paint26_linear_778_1321)" stroke-opacity="0.5" stroke-width="8" stroke-linecap="round"/>
</g>
<g filter="url(#filter12_f_778_1321)">
<path d="M498.082 469.967C575.788 591.983 509.927 703.799 417.145 735.493" stroke="url(#paint27_linear_778_1321)" stroke-width="3" stroke-linecap="round"/>
</g>
<g filter="url(#filter13_f_778_1321)">
<path d="M406.98 468.332C387.426 454.28 380.4 420.802 382.88 398.07C413.052 396.416 445.703 410.882 455.209 424.355C453.143 438.161 427.104 463.786 406.98 468.332Z" fill="url(#paint28_radial_778_1321)"/>
</g>
<g filter="url(#filter14_f_778_1321)">
<path d="M412.394 452.627C401.737 444.871 397.908 426.394 399.26 413.847C415.702 412.935 433.496 420.919 438.677 428.355C437.551 435.975 423.361 450.118 412.394 452.627Z" fill="url(#paint29_radial_778_1321)"/>
</g>
<g filter="url(#filter15_f_778_1321)">
<path d="M426.259 269.96C521.267 160.876 651.024 197.432 703.836 272.371" stroke="url(#paint30_linear_778_1321)" stroke-opacity="0.8" stroke-width="6" stroke-linecap="round"/>
</g>
<g filter="url(#filter16_f_778_1321)">
<path d="M448.758 717.839C321.871 777.356 214.575 698.418 197.716 601.833" stroke="url(#paint31_linear_778_1321)" stroke-width="5" stroke-linecap="round"/>
</g>
<defs>
<filter id="filter0_f_778_1321" x="81.8984" y="293.538" width="560.045" height="560.045" filterUnits="userSpaceOnUse" color-interpolation-filters="sRGB">
<feFlood flood-opacity="0" result="BackgroundImageFix"/>
<feBlend mode="normal" in="SourceGraphic" in2="BackgroundImageFix" result="shape"/>
<feGaussianBlur stdDeviation="50" result="effect1_foregroundBlur_778_1321"/>
</filter>
<filter id="filter1_f_778_1321" x="181.582" y="393.577" width="359.589" height="359.587" filterUnits="userSpaceOnUse" color-interpolation-filters="sRGB">
<feFlood flood-opacity="0" result="BackgroundImageFix"/>
<feBlend mode="normal" in="SourceGraphic" in2="BackgroundImageFix" result="shape"/>
<feGaussianBlur stdDeviation="5" result="effect1_foregroundBlur_778_1321"/>
</filter>
<filter id="filter2_f_778_1321" x="0.587891" y="0.762207" width="602.387" height="602.382" filterUnits="userSpaceOnUse" color-interpolation-filters="sRGB">
<feFlood flood-opacity="0" result="BackgroundImageFix"/>
<feBlend mode="normal" in="SourceGraphic" in2="BackgroundImageFix" result="shape"/>
<feGaussianBlur stdDeviation="50" result="effect1_foregroundBlur_778_1321"/>
</filter>
<filter id="filter3_f_778_1321" x="102.477" y="101.735" width="399.523" height="399.52" filterUnits="userSpaceOnUse" color-interpolation-filters="sRGB">
<feFlood flood-opacity="0" result="BackgroundImageFix"/>
<feBlend mode="normal" in="SourceGraphic" in2="BackgroundImageFix" result="shape"/>
<feGaussianBlur stdDeviation="5" result="effect1_foregroundBlur_778_1321"/>
</filter>
<filter id="filter4_f_778_1321" x="126.424" y="112.155" width="342.504" height="128.753" filterUnits="userSpaceOnUse" color-interpolation-filters="sRGB">
<feFlood flood-opacity="0" result="BackgroundImageFix"/>
<feBlend mode="normal" in="SourceGraphic" in2="BackgroundImageFix" result="shape"/>
<feGaussianBlur stdDeviation="2" result="effect1_foregroundBlur_778_1321"/>
</filter>
<filter id="filter5_f_778_1321" x="275.344" y="82.3696" width="578.641" height="578.611" filterUnits="userSpaceOnUse" color-interpolation-filters="sRGB">
<feFlood flood-opacity="0" result="BackgroundImageFix"/>
<feBlend mode="normal" in="SourceGraphic" in2="BackgroundImageFix" result="shape"/>
<feGaussianBlur stdDeviation="50" result="effect1_foregroundBlur_778_1321"/>
</filter>
<filter id="filter6_f_778_1321" x="376.671" y="183.289" width="377.155" height="377.12" filterUnits="userSpaceOnUse" color-interpolation-filters="sRGB">
<feFlood flood-opacity="0" result="BackgroundImageFix"/>
<feBlend mode="normal" in="SourceGraphic" in2="BackgroundImageFix" result="shape"/>
<feGaussianBlur stdDeviation="5" result="effect1_foregroundBlur_778_1321"/>
</filter>
<filter id="filter7_f_778_1321" x="624.395" y="203.572" width="120.75" height="293.649" filterUnits="userSpaceOnUse" color-interpolation-filters="sRGB">
<feFlood flood-opacity="0" result="BackgroundImageFix"/>
<feBlend mode="normal" in="SourceGraphic" in2="BackgroundImageFix" result="shape"/>
<feGaussianBlur stdDeviation="4" result="effect1_foregroundBlur_778_1321"/>
</filter>
<filter id="filter8_f_778_1321" x="164.646" y="168.358" width="361.979" height="377.789" filterUnits="userSpaceOnUse" color-interpolation-filters="sRGB">
<feFlood flood-opacity="0" result="BackgroundImageFix"/>
<feBlend mode="normal" in="SourceGraphic" in2="BackgroundImageFix" result="shape"/>
<feGaussianBlur stdDeviation="15" result="effect1_foregroundBlur_778_1321"/>
</filter>
<filter id="filter9_f_778_1321" x="195.529" y="453.453" width="362.303" height="112.542" filterUnits="userSpaceOnUse" color-interpolation-filters="sRGB">
<feFlood flood-opacity="0" result="BackgroundImageFix"/>
<feBlend mode="normal" in="SourceGraphic" in2="BackgroundImageFix" result="shape"/>
<feGaussianBlur stdDeviation="5" result="effect1_foregroundBlur_778_1321"/>
</filter>
<filter id="filter10_f_778_1321" x="425.355" y="180.446" width="137.151" height="450.541" filterUnits="userSpaceOnUse" color-interpolation-filters="sRGB">
<feFlood flood-opacity="0" result="BackgroundImageFix"/>
<feBlend mode="normal" in="SourceGraphic" in2="BackgroundImageFix" result="shape"/>
<feGaussianBlur stdDeviation="10" result="effect1_foregroundBlur_778_1321"/>
</filter>
<filter id="filter11_f_778_1321" x="196.04" y="394.094" width="320.761" height="121.954" filterUnits="userSpaceOnUse" color-interpolation-filters="sRGB">
<feFlood flood-opacity="0" result="BackgroundImageFix"/>
<feBlend mode="normal" in="SourceGraphic" in2="BackgroundImageFix" result="shape"/>
<feGaussianBlur stdDeviation="4" result="effect1_foregroundBlur_778_1321"/>
</filter>
<filter id="filter12_f_778_1321" x="411.645" y="464.467" width="126.289" height="276.526" filterUnits="userSpaceOnUse" color-interpolation-filters="sRGB">
<feFlood flood-opacity="0" result="BackgroundImageFix"/>
<feBlend mode="normal" in="SourceGraphic" in2="BackgroundImageFix" result="shape"/>
<feGaussianBlur stdDeviation="2" result="effect1_foregroundBlur_778_1321"/>
</filter>
<filter id="filter13_f_778_1321" x="362.401" y="377.94" width="112.808" height="110.393" filterUnits="userSpaceOnUse" color-interpolation-filters="sRGB">
<feFlood flood-opacity="0" result="BackgroundImageFix"/>
<feBlend mode="normal" in="SourceGraphic" in2="BackgroundImageFix" result="shape"/>
<feGaussianBlur stdDeviation="10" result="effect1_foregroundBlur_778_1321"/>
</filter>
<filter id="filter14_f_778_1321" x="378.999" y="393.776" width="79.6777" height="78.8511" filterUnits="userSpaceOnUse" color-interpolation-filters="sRGB">
<feFlood flood-opacity="0" result="BackgroundImageFix"/>
<feBlend mode="normal" in="SourceGraphic" in2="BackgroundImageFix" result="shape"/>
<feGaussianBlur stdDeviation="10" result="effect1_foregroundBlur_778_1321"/>
</filter>
<filter id="filter15_f_778_1321" x="413.259" y="188.398" width="303.577" height="96.9731" filterUnits="userSpaceOnUse" color-interpolation-filters="sRGB">
<feFlood flood-opacity="0" result="BackgroundImageFix"/>
<feBlend mode="normal" in="SourceGraphic" in2="BackgroundImageFix" result="shape"/>
<feGaussianBlur stdDeviation="5" result="effect1_foregroundBlur_778_1321"/>
</filter>
<filter id="filter16_f_778_1321" x="191.216" y="595.333" width="264.043" height="149.61" filterUnits="userSpaceOnUse" color-interpolation-filters="sRGB">
<feFlood flood-opacity="0" result="BackgroundImageFix"/>
<feBlend mode="normal" in="SourceGraphic" in2="BackgroundImageFix" result="shape"/>
<feGaussianBlur stdDeviation="2" result="effect1_foregroundBlur_778_1321"/>
</filter>
<linearGradient id="paint0_linear_778_1321" x1="233.363" y1="426.575" x2="457.484" y2="724.83" gradientUnits="userSpaceOnUse">
<stop stop-color="white"/>
<stop offset="1" stop-color="white" stop-opacity="0"/>
</linearGradient>
<linearGradient id="paint1_linear_778_1321" x1="305.422" y1="738.06" x2="418.201" y2="395.834" gradientUnits="userSpaceOnUse">
<stop stop-color="white" stop-opacity="0"/>
<stop offset="1" stop-color="white" stop-opacity="0.7"/>
</linearGradient>
<linearGradient id="paint2_linear_778_1321" x1="246.075" y1="692.349" x2="425.063" y2="416.462" gradientUnits="userSpaceOnUse">
<stop stop-color="white"/>
<stop offset="0.576315" stop-color="white"/>
<stop offset="1" stop-color="white" stop-opacity="0"/>
</linearGradient>
<linearGradient id="paint3_linear_778_1321" x1="258.352" y1="444.729" x2="479.955" y2="706.616" gradientUnits="userSpaceOnUse">
<stop offset="0.071582" stop-color="#FCFCC4"/>
<stop offset="0.56162" stop-color="#FCFCC4" stop-opacity="0.7"/>
<stop offset="1" stop-color="#FCFCC4" stop-opacity="0.4"/>
</linearGradient>
<linearGradient id="paint4_linear_778_1321" x1="307.99" y1="730.583" x2="415.643" y2="403.912" gradientUnits="userSpaceOnUse">
<stop stop-color="white" stop-opacity="0"/>
<stop offset="1" stop-color="white" stop-opacity="0.7"/>
</linearGradient>
<linearGradient id="paint5_linear_778_1321" x1="158.072" y1="137.647" x2="408.602" y2="471.052" gradientUnits="userSpaceOnUse">
<stop stop-color="#FCFDFF"/>
<stop offset="1" stop-color="#FCFDFF" stop-opacity="0"/>
</linearGradient>
<linearGradient id="paint6_linear_778_1321" x1="163.82" y1="164.952" x2="453.152" y2="445.185" gradientUnits="userSpaceOnUse">
<stop stop-color="white" stop-opacity="0"/>
<stop offset="1" stop-color="white" stop-opacity="0.7"/>
</linearGradient>
<linearGradient id="paint7_linear_778_1321" x1="120.716" y1="-7.12299e-06" x2="296.619" y2="356.065" gradientUnits="userSpaceOnUse">
<stop stop-color="white"/>
<stop offset="0.29265" stop-color="white" stop-opacity="0.8"/>
<stop offset="1" stop-color="white" stop-opacity="0.4"/>
</linearGradient>
<linearGradient id="paint8_linear_778_1321" x1="152.907" y1="191.135" x2="464.171" y2="416.845" gradientUnits="userSpaceOnUse">
<stop stop-color="white" stop-opacity="0"/>
<stop offset="1" stop-color="white" stop-opacity="0.7"/>
</linearGradient>
<linearGradient id="paint9_linear_778_1321" x1="168.316" y1="171.205" x2="433.367" y2="426.762" gradientUnits="userSpaceOnUse">
<stop stop-color="#FCFDFF"/>
<stop offset="0.464663" stop-color="#FCFDFF"/>
<stop offset="1" stop-color="white" stop-opacity="0"/>
</linearGradient>
<linearGradient id="paint10_linear_778_1321" x1="103.332" y1="212.331" x2="376.313" y2="71.9521" gradientUnits="userSpaceOnUse">
<stop stop-color="#FCFDFF" stop-opacity="0"/>
<stop offset="0.5" stop-color="white"/>
<stop offset="1" stop-color="white" stop-opacity="0"/>
</linearGradient>
<linearGradient id="paint11_linear_778_1321" x1="451.701" y1="191.121" x2="637.223" y2="538.6" gradientUnits="userSpaceOnUse">
<stop stop-color="white"/>
<stop offset="1" stop-color="white" stop-opacity="0"/>
</linearGradient>
<linearGradient id="paint12_linear_778_1321" x1="616.423" y1="196.237" x2="513.797" y2="561.014" gradientUnits="userSpaceOnUse">
<stop stop-color="white" stop-opacity="0"/>
<stop offset="1" stop-color="white" stop-opacity="0.7"/>
</linearGradient>
<linearGradient id="paint13_linear_778_1321" x1="407.15" y1="287.104" x2="729.042" y2="440.238" gradientUnits="userSpaceOnUse">
<stop stop-color="#FCD414" stop-opacity="0.9"/>
<stop offset="0.509207" stop-color="#FCD414" stop-opacity="0.7"/>
<stop offset="1" stop-color="#FCD414" stop-opacity="0.4"/>
</linearGradient>
<linearGradient id="paint14_linear_778_1321" x1="742.151" y1="416.301" x2="380.573" y2="321.992" gradientUnits="userSpaceOnUse">
<stop stop-color="white" stop-opacity="0"/>
<stop offset="1" stop-color="#FFEA00" stop-opacity="0.7"/>
</linearGradient>
<linearGradient id="paint15_linear_778_1321" x1="685.019" y1="236.609" x2="443.951" y2="505.616" gradientUnits="userSpaceOnUse">
<stop stop-color="white"/>
<stop offset="0.464663" stop-color="white"/>
<stop offset="1" stop-color="white" stop-opacity="0"/>
</linearGradient>
<linearGradient id="paint16_linear_778_1321" x1="662.655" y1="192.643" x2="777.504" y2="374.305" gradientUnits="userSpaceOnUse">
<stop stop-color="white" stop-opacity="0"/>
<stop offset="0.387758" stop-color="white" stop-opacity="0.9"/>
<stop offset="1" stop-color="white" stop-opacity="0"/>
</linearGradient>
<linearGradient id="paint17_linear_778_1321" x1="203.877" y1="510.618" x2="472.359" y2="217.692" gradientUnits="userSpaceOnUse">
<stop stop-color="white" stop-opacity="0.1"/>
<stop offset="0.528128" stop-color="white"/>
<stop offset="1" stop-color="white" stop-opacity="0.1"/>
</linearGradient>
<linearGradient id="paint18_linear_778_1321" x1="542.832" y1="560.501" x2="219.731" y2="474.093" gradientUnits="userSpaceOnUse">
<stop stop-color="white" stop-opacity="0"/>
<stop offset="0.735478" stop-color="white"/>
<stop offset="1" stop-color="white" stop-opacity="0.1"/>
</linearGradient>
<linearGradient id="paint19_linear_778_1321" x1="482.575" y1="222.439" x2="536.204" y2="563.964" gradientUnits="userSpaceOnUse">
<stop stop-color="white" stop-opacity="0.1"/>
<stop offset="0.561099" stop-color="white"/>
<stop offset="1" stop-color="white" stop-opacity="0.1"/>
</linearGradient>
<radialGradient id="paint20_radial_778_1321" cx="0" cy="0" r="1" gradientUnits="userSpaceOnUse" gradientTransform="translate(419.983 408.542) rotate(-74.0008) scale(181.446 71.8555)">
<stop stop-color="white" stop-opacity="0.4"/>
<stop offset="0.626341" stop-color="white" stop-opacity="0.55"/>
<stop offset="1" stop-color="white"/>
</radialGradient>
<linearGradient id="paint21_linear_778_1321" x1="471.521" y1="215.329" x2="405.693" y2="461.132" gradientUnits="userSpaceOnUse">
<stop stop-color="white" stop-opacity="0.7"/>
<stop offset="1" stop-color="white" stop-opacity="0"/>
</linearGradient>
<radialGradient id="paint22_radial_778_1321" cx="0" cy="0" r="1" gradientUnits="userSpaceOnUse" gradientTransform="translate(419.569 431.686) rotate(168.624) scale(207.746 82.2708)">
<stop stop-color="white" stop-opacity="0.4"/>
<stop offset="0.534376" stop-color="white" stop-opacity="0.55"/>
<stop offset="0.902824" stop-color="white"/>
</radialGradient>
<linearGradient id="paint23_linear_778_1321" x1="199.817" y1="479.266" x2="447.739" y2="428.442" gradientUnits="userSpaceOnUse">
<stop stop-color="white" stop-opacity="0.7"/>
<stop offset="1" stop-color="white" stop-opacity="0"/>
</linearGradient>
<radialGradient id="paint24_radial_778_1321" cx="0" cy="0" r="1" gradientUnits="userSpaceOnUse" gradientTransform="translate(405.805 422.781) rotate(46.0894) scale(181.418 71.8447)">
<stop stop-color="white" stop-opacity="0.4"/>
<stop offset="0.534376" stop-color="white" stop-opacity="0.55"/>
<stop offset="0.902824" stop-color="white"/>
</radialGradient>
<linearGradient id="paint25_linear_778_1321" x1="545.026" y1="563.049" x2="390.328" y2="403.523" gradientUnits="userSpaceOnUse">
<stop stop-color="white" stop-opacity="0.7"/>
<stop offset="1" stop-color="white" stop-opacity="0"/>
</linearGradient>
<linearGradient id="paint26_linear_778_1321" x1="166.957" y1="472.345" x2="537.723" y2="381.047" gradientUnits="userSpaceOnUse">
<stop stop-color="white" stop-opacity="0"/>
<stop offset="0.5" stop-color="white"/>
<stop offset="1" stop-color="white" stop-opacity="0"/>
</linearGradient>
<linearGradient id="paint27_linear_778_1321" x1="532.538" y1="463.897" x2="545.569" y2="678.423" gradientUnits="userSpaceOnUse">
<stop stop-color="white" stop-opacity="0"/>
<stop offset="0.387758" stop-color="white" stop-opacity="0.9"/>
<stop offset="1" stop-color="white" stop-opacity="0"/>
</linearGradient>
<radialGradient id="paint28_radial_778_1321" cx="0" cy="0" r="1" gradientUnits="userSpaceOnUse" gradientTransform="translate(418.012 432.374) rotate(90) scale(35.9581 37.198)">
<stop stop-color="white"/>
<stop offset="1" stop-color="white" stop-opacity="0.8"/>
</radialGradient>
<radialGradient id="paint29_radial_778_1321" cx="0" cy="0" r="1" gradientUnits="userSpaceOnUse" gradientTransform="translate(418.405 432.781) rotate(90) scale(19.8461 20.2717)">
<stop stop-color="white"/>
<stop offset="1" stop-color="white" stop-opacity="0.8"/>
</radialGradient>
<linearGradient id="paint30_linear_778_1321" x1="410.678" y1="238.635" x2="612.727" y2="165.372" gradientUnits="userSpaceOnUse">
<stop stop-color="white" stop-opacity="0"/>
<stop offset="0.387758" stop-color="white" stop-opacity="0.9"/>
<stop offset="1" stop-color="white" stop-opacity="0"/>
</linearGradient>
<linearGradient id="paint31_linear_778_1321" x1="451.103" y1="756.832" x2="237.164" y2="736.297" gradientUnits="userSpaceOnUse">
<stop stop-color="white" stop-opacity="0"/>
<stop offset="0.387758" stop-color="white" stop-opacity="0.9"/>
<stop offset="1" stop-color="white" stop-opacity="0"/>
</linearGradient>
</defs>
</svg>
